<svg width="40" height="40" viewBox="0 0 40 40" fill="none" xmlns="http://www.w3.org/2000/svg">
<path d="M11.2832 21.9724C11.2832 19.8119 13.0117 18.0835 15.0281 18.0835C17.0445 18.0835 18.917 19.8119 18.917 21.9724C18.917 22.9807 18.4849 23.9889 17.7647 24.7091C16.1804 26.0054 11.2832 29.7502 11.2832 29.7502H18.917" stroke="#6393DB" stroke-width="2" stroke-linecap="round" stroke-linejoin="round"/>
<path d="M24.5288 25.8613C26.6766 25.8613 28.4177 24.1202 28.4177 21.9724C28.4177 19.8246 26.6766 18.0835 24.5288 18.0835C22.381 18.0835 20.6399 19.8246 20.6399 21.9724C20.6399 24.1202 22.381 25.8613 24.5288 25.8613Z" stroke="#6393DB" stroke-width="2" stroke-linecap="round" stroke-linejoin="round"/>
<path d="M21.0721 28.3097C21.6482 29.1738 22.6564 29.75 24.2408 29.75H24.5289C26.6894 29.75 28.4178 28.0216 28.4178 25.8611V21.9722" stroke="#6393DB" stroke-width="2" stroke-linecap="round" stroke-linejoin="round"/>
<path d="M6.5995 8.79883C5.71608 8.79883 5 9.51491 5 10.3983V36.9004C5 37.7837 5.71608 38.4998 6.59942 38.4998H33.1015C33.9848 38.4998 34.7009 37.7838 34.701 36.9005V10.3983C34.701 9.51491 33.9849 8.79883 33.1015 8.79883H6.5995Z" stroke="#6393DB" stroke-width="3" stroke-linecap="round" stroke-linejoin="round"/>
<path d="M10.531 10.7983V6" stroke="#6393DB" stroke-width="3" stroke-linecap="round" stroke-linejoin="round"/>
<path d="M29.17 10.7983V6" stroke="#6393DB" stroke-width="3" stroke-linecap="round" stroke-linejoin="round"/>
</svg>
