<svg width="40" height="40" viewBox="0 0 40 40" fill="none" xmlns="http://www.w3.org/2000/svg">
<g clip-path="url(#clip0_293_126)">
<path d="M33.6667 40.3333H8.66667C8.22464 40.3333 7.80072 40.1577 7.48816 39.8452C7.1756 39.5326 7 39.1087 7 38.6667V8.66667C7 8.22464 7.1756 7.80072 7.48816 7.48816C7.80072 7.17559 8.22464 7 8.66667 7H33.6667C34.1087 7 34.5326 7.17559 34.8452 7.48816C35.1577 7.80072 35.3333 8.22464 35.3333 8.66667V33.6667C35.3333 34.1087 35.1577 34.5326 34.8452 34.8452C34.5326 35.1577 34.1087 35.3333 33.6667 35.3333C33.2246 35.3333 32.8007 35.1577 32.4882 34.8452C32.1756 34.5326 32 34.1087 32 33.6667V10.3333H10.3333V37H33.6667C34.1087 37 34.5326 37.1756 34.8452 37.4882C35.1577 37.8007 35.3333 38.2246 35.3333 38.6667C35.3333 39.1087 35.1577 39.5326 34.8452 39.8452C34.5326 40.1577 34.1087 40.3333 33.6667 40.3333Z" fill="white"/>
<path d="M12.3333 14H5.66667C5.22464 14 4.80072 13.8946 4.48816 13.7071C4.17559 13.5196 4 13.2652 4 13C4 12.7348 4.17559 12.4804 4.48816 12.2929C4.80072 12.1054 5.22464 12 5.66667 12H12.3333C12.7754 12 13.1993 12.1054 13.5118 12.2929C13.8244 12.4804 14 12.7348 14 13C14 13.2652 13.8244 13.5196 13.5118 13.7071C13.1993 13.8946 12.7754 14 12.3333 14Z" fill="white"/>
<path d="M12.3333 20.6665H5.66667C5.22464 20.6665 4.80072 20.5611 4.48816 20.3736C4.17559 20.1861 4 19.9317 4 19.6665C4 19.4013 4.17559 19.1469 4.48816 18.9594C4.80072 18.7719 5.22464 18.6665 5.66667 18.6665H12.3333C12.7754 18.6665 13.1993 18.7719 13.5118 18.9594C13.8244 19.1469 14 19.4013 14 19.6665C14 19.9317 13.8244 20.1861 13.5118 20.3736C13.1993 20.5611 12.7754 20.6665 12.3333 20.6665Z" fill="white"/>
<path d="M12.3333 27.333H5.66667C5.22464 27.333 4.80072 27.2277 4.48816 27.0401C4.17559 26.8526 4 26.5982 4 26.333C4 26.0678 4.17559 25.8134 4.48816 25.6259C4.80072 25.4384 5.22464 25.333 5.66667 25.333H12.3333C12.7754 25.333 13.1993 25.4384 13.5118 25.6259C13.8244 25.8134 14 26.0678 14 26.333C14 26.5982 13.8244 26.8526 13.5118 27.0401C13.1993 27.2277 12.7754 27.333 12.3333 27.333Z" fill="white"/>
<path d="M12.3333 34H5.66667C5.22464 34 4.80072 33.8946 4.48816 33.7071C4.17559 33.5196 4 33.2652 4 33C4 32.7348 4.17559 32.4804 4.48816 32.2929C4.80072 32.1054 5.22464 32 5.66667 32H12.3333C12.7754 32 13.1993 32.1054 13.5118 32.2929C13.8244 32.4804 14 32.7348 14 33C14 33.2652 13.8244 33.5196 13.5118 33.7071C13.1993 33.8946 12.7754 34 12.3333 34Z" fill="white"/>
<path d="M25.6667 20.6665H19C18.558 20.6665 18.1341 20.5611 17.8215 20.3736C17.509 20.1861 17.3334 19.9317 17.3334 19.6665C17.3334 19.4013 17.509 19.1469 17.8215 18.9594C18.1341 18.7719 18.558 18.6665 19 18.6665H25.6667C26.1087 18.6665 26.5327 18.7719 26.8452 18.9594C27.1578 19.1469 27.3334 19.4013 27.3334 19.6665C27.3334 19.9317 27.1578 20.1861 26.8452 20.3736C26.5327 20.5611 26.1087 20.6665 25.6667 20.6665Z" fill="white"/>
<path d="M25.6667 27.333H19C18.558 27.333 18.1341 27.2277 17.8215 27.0401C17.509 26.8526 17.3334 26.5982 17.3334 26.333C17.3334 26.0678 17.509 25.8134 17.8215 25.6259C18.1341 25.4384 18.558 25.333 19 25.333H25.6667C26.1087 25.333 26.5327 25.4384 26.8452 25.6259C27.1578 25.8134 27.3334 26.0678 27.3334 26.333C27.3334 26.5982 27.1578 26.8526 26.8452 27.0401C26.5327 27.2277 26.1087 27.333 25.6667 27.333Z" fill="white"/>
</g>
<defs>
<clipPath id="clip0_293_126">
<rect width="40" height="40" fill="white"/>
</clipPath>
</defs>
</svg>
